<svg height="30" viewBox="0 0 30 30" width="30" xmlns="http://www.w3.org/2000/svg"><g fill="#e0c55e"><path d="m13.54 14.31v2.91a1.59 1.59 0 0 0 0 .38c.12.53.87.82 1.8.71.67-.07 1-.38 1-1 0-2 0-3.94 0-5.9 0-.48.16-.5.55-.43a15.52 15.52 0 0 1 3.73 1.39c2.33 1.07 4.66 2.12 7 3.2a2.81 2.81 0 0 1 .95.68 1.1 1.1 0 0 1 0 1.65 5.82 5.82 0 0 1 -1.84 1.1c-2.59 1.2-5.17 2.4-7.73 3.54a9.4 9.4 0 0 1 -7.93 0q-3.81-1.71-7.61-3.45a10 10 0 0 1 -1.55-.82c-1-.73-1-1.61 0-2.32a15.87 15.87 0 0 1 2.51-1.25l6.57-3a9.08 9.08 0 0 1 2.15-.7c.32-.06.42 0 .41.34-.03.97-.01 1.97-.01 2.97zm-7.11 1.61a2.72 2.72 0 0 0 -1.49.36.87.87 0 0 0 0 1.59 3.07 3.07 0 0 0 3.14-.05.84.84 0 0 0 0-1.46 2.51 2.51 0 0 0 -1.65-.44z"/><path d="m15.09 27.9a11.43 11.43 0 0 1 -4.72-1.18c-2.53-1.21-5.1-2.33-7.65-3.48a5 5 0 0 1 -.51-.24 2.13 2.13 0 0 1 -1.12-2.6c.09-.34.3-.38.59-.25 1 .46 2 .92 3 1.37 2.34 1 4.64 2.2 7 3.11a9.25 9.25 0 0 0 7.31-.29c2.56-1.14 5.11-2.3 7.67-3.45l1.6-.73c.4-.17.59-.05.64.38.15 1.42-.11 2-1.4 2.58-2 .95-4 1.86-6 2.77a33.42 33.42 0 0 1 -3.8 1.63 10.12 10.12 0 0 1 -2.61.38z"/><path d="m18.88 5.94a3.87 3.87 0 1 1 -3.88-3.84 3.86 3.86 0 0 1 3.88 3.84z"/></g><path d="m0 0h30v30h-30z" fill="none"/></svg>