<svg height="30" viewBox="0 0 30 30" width="30" xmlns="http://www.w3.org/2000/svg"><g fill="#e0c55e"><path d="m27.41 8.54a14 14 0 0 0 -8-6.84 12.17 12.17 0 0 0 -3.1-.61l-.88-.09h-.22-.5a2.51 2.51 0 0 1 -.27 0 13.42 13.42 0 0 0 -9.68 4.47 13.25 13.25 0 0 0 -3.4 6.33 15.6 15.6 0 0 0 -.36 3.2 13.37 13.37 0 0 0 4.52 10.28 13.08 13.08 0 0 0 6.48 3.37c.76.16 1.54.2 2.32.3l.43.05h.5l.3-.05a14 14 0 0 0 12.64-9.17 13.17 13.17 0 0 0 .77-3.28 13.58 13.58 0 0 0 -1.55-7.96zm-12.17 18a11.53 11.53 0 1 1 11.3-11.8 11.59 11.59 0 0 1 -11.3 11.79z"/><path d="m4.57 18.61.93-.32 1.74-.61c.14-.05.2 0 .26.11s.23.53.35.8 0 .23-.11.31l-2.27 1.22c-.07 0-.15.1-.2 0-.27-.5-.46-1-.7-1.51z"/><path d="m5.5 15h1.26c.16 0 .25 0 .25.21s0 .6.06.9a.17.17 0 0 1 -.18.2l-2.43.39c-.3 0-.33 0-.36-.27s-.1-.83-.1-1.25c0-.14.07-.17.19-.17z"/><path d="m24.48 15h1.27c.15 0 .23 0 .21.21 0 .42-.05.84-.08 1.26 0 .25-.06.27-.33.23l-1.82-.29-.64-.1c-.17 0-.23-.09-.2-.27a7.53 7.53 0 0 0 .08-.83c0-.18.1-.22.26-.22.42.01.83.01 1.25.01z"/><path d="m6.27 8.28 1.52 1.16.67.51c.11.08.16.17.08.29-.19.31-.38.62-.59.94l-2.63-1.46c.31-.48.62-.95.95-1.44z"/><path d="m22.4 7-1.88 2a.2.2 0 0 1 -.32 0l-.68-.53a.14.14 0 0 1 -.05-.22c.49-.74 1-1.48 1.45-2.22.06-.09.14-.16.25-.07l1.19 1s.02-.05.04.04z"/><path d="m8.93 5.8 1 1.52.49.78c.12.21.12.25-.08.4s-.34.29-.57.5-.24.09-.36 0l-1.41-1.62-.35-.33c-.06-.06-.11-.11 0-.19.35-.35.82-.69 1.28-1.06z"/><path d="m17 7.17c.09-.35.17-.66.24-1 .13-.55.26-1.09.4-1.64.05-.22.08-.23.29-.15l1.24.44c.16.05.19.13.12.27-.35.76-.69 1.53-1 2.29-.11.24-.12.24-.36.16s-.48-.16-.72-.26c-.09.01-.14-.06-.21-.11z"/><path d="m10.52 25h-.15l-1.12-.6c-.25-.16-.25-.21-.09-.4.45-.71.91-1.41 1.36-2.11.09-.14.17-.16.31-.07s.48.26.73.38.18.15.11.3c-.35.79-.69 1.57-1 2.36a1 1 0 0 1 -.15.14z"/><path d="m13 7.16s-.08.1-.13.12c-.29.12-.59.22-.88.33s-.19-.07-.23-.17c-.3-.66-.59-1.33-.88-2l-.16-.37c0-.1 0-.17.08-.21l1.38-.48c.11 0 .12 0 .14.11.17.63.33 1.26.49 1.89.02.26.08.51.19.78z"/><path d="m15.72 23.31c0-.3 0-.3.28-.35l.68-.12c.15 0 .24 0 .28.17.22.83.43 1.66.65 2.48 0 .13 0 .22-.16.24l-1.34.25c-.17 0-.17-.08-.19-.19s-.06-.49-.08-.74c-.04-.61-.08-1.16-.12-1.74z"/><path d="m22.62 17.65.2.06 2.27.79c.27.09.29.13.18.38l-.52 1.12c-.06.13-.14.14-.26.07l-2.27-1.22c-.12-.06-.17-.13-.1-.27s.24-.53.37-.79a.42.42 0 0 1 .13-.14z"/><path d="m22.05 11.11a.48.48 0 0 1 -.16-.13c-.17-.25-.33-.51-.51-.77-.06-.1 0-.14.07-.2l1.84-1.42c.43-.33.39-.33.68.12l.53.8c.12.18.11.24-.08.35l-2.21 1.2z"/><path d="m23.11 13.62c-.16 0-.25 0-.28-.21s-.11-.53-.19-.8a.17.17 0 0 1 .12-.25l2.45-.83a.17.17 0 0 1 .24.12c.13.44.24.88.36 1.31.05.17-.08.19-.19.22l-1.49.26z"/><path d="m21 24.21-1.42.79c-.11.05-.17 0-.21-.08-.35-.81-.71-1.63-1.06-2.45 0-.1 0-.16.08-.21l.8-.42a.15.15 0 0 1 .23 0l1.58 2.31a.21.21 0 0 0 0 .06z"/><path d="m20.44 20.86c.28-.32.55-.62.84-.93l.37.28 1.79 1.39c.18.14.18.2 0 .36l-.83.9c-.1.12-.2.16-.32 0z"/><path d="m7.5 23.06-1.06-1.15c-.08-.08-.07-.16 0-.23l2.07-1.62a.18.18 0 0 1 .28 0l.57.64a.21.21 0 0 1 0 .31z"/><path d="m6.84 13.6-1.54-.25-1-.17c-.14 0-.19-.08-.15-.22.12-.42.22-.85.33-1.28 0-.17.14-.2.28-.16l2.4.86a.2.2 0 0 1 .14.27c-.07.25-.11.5-.17.76s-.04.2-.29.19z"/><path d="m15 4.05h.65c.15 0 .2 0 .18.19 0 .54-.08 1.09-.13 1.63 0 .32-.07.64-.09 1 0 .13-.07.18-.2.18h-.88a.17.17 0 0 1 -.2-.18c-.06-.83-.13-1.67-.19-2.5 0-.28 0-.29.27-.29z"/><path d="m14.24 23.51c-.05.72-.11 1.49-.16 2.24 0 .13-.08.18-.19.15-.47-.07-.93-.14-1.4-.23-.18 0-.12-.17-.09-.27.14-.54.27-1.09.42-1.63l.21-.84a.17.17 0 0 1 .23-.14l.77.14c.18 0 .25.1.21.28a3 3 0 0 0 0 .3z"/><path d="m7 19.74a.47.47 0 0 1 .48.47.53.53 0 0 1 -.5.5.54.54 0 0 1 -.48-.51.53.53 0 0 1 .5-.46z"/><path d="m14.79 7.64a7.36 7.36 0 1 0 7.56 7.36 7.37 7.37 0 0 0 -7.56-7.36zm.21 12.36a5.09 5.09 0 0 1 -5-5 5.12 5.12 0 0 1 5-5 5 5 0 0 1 0 10z"/><path d="m18.49 15.8a.62.62 0 0 0 -.86-.34.71.71 0 0 1 -.62 0l-.24-.09c-.29-.09-.35-.17-.34-.47a1.25 1.25 0 0 0 -.43-.9 1.57 1.57 0 0 1 -.18-.19.38.38 0 0 1 -.08-.26 1.18 1.18 0 0 1 .6-.9.55.55 0 0 0 .29-.68.62.62 0 0 0 -.61-.48c-.49 0-.78.34-.62.78a1.25 1.25 0 0 1 0 1 .45.45 0 0 1 -.49.37 1.29 1.29 0 0 0 -1.08.53.29.29 0 0 1 -.36.09 2.62 2.62 0 0 1 -.47-.26 1.22 1.22 0 0 1 -.3-.3 2 2 0 0 0 -.26-.32.69.69 0 0 0 -.86.13.63.63 0 0 0 0 .82.62.62 0 0 0 .79.17.52.52 0 0 1 .56 0l.18.07c.38.13.38.13.41.55v.09a1.58 1.58 0 0 0 .5.93.47.47 0 0 1 .09.56 1.11 1.11 0 0 1 -.51.62.63.63 0 0 0 -.26.85.7.7 0 0 0 .83.31.66.66 0 0 0 .33-.87 1 1 0 0 1 -.07-.42 3.39 3.39 0 0 1 .17-.51.31.31 0 0 1 .36-.25 1.12 1.12 0 0 0 1.04-.43.6.6 0 0 1 .73-.17 1 1 0 0 1 .61.5.62.62 0 0 0 .84.28.68.68 0 0 0 .31-.81zm-3.41-1.32h-.12a.56.56 0 0 0 -.44.48.23.23 0 0 1 -.29.2c-.15 0-.19-.13-.19-.32a1 1 0 0 1 .78-.82.48.48 0 0 1 .26 0c.17.19.16.35 0 .46z"/></g><path d="m0 0h30v30h-30z" fill="none"/></svg>