<?xml version="1.0" encoding="utf-8"?>
<!-- Generator: Adobe Illustrator 16.0.0, SVG Export Plug-In . SVG Version: 6.00 Build 0)  -->
<!DOCTYPE svg PUBLIC "-//W3C//DTD SVG 1.1//EN" "http://www.w3.org/Graphics/SVG/1.1/DTD/svg11.dtd">
<svg version="1.1" id="Layer_1" xmlns="http://www.w3.org/2000/svg" xmlns:xlink="http://www.w3.org/1999/xlink" x="0px" y="0px"
	 width="42px" height="42px" viewBox="0 0 42 42" enable-background="new 0 0 42 42" xml:space="preserve">
<g>
	<path fill="#999999" stroke="#999999" stroke-miterlimit="10" d="M21.239,14.762c-2.727,2.813-5.441,5.615-8.166,8.427
		c-0.307-0.353-0.607-0.695-0.938-1.072c2.585-2.67,5.268-5.439,7.987-8.249c-2.85-2.256-5.678-4.494-8.574-6.786
		c0,1.909,0,3.747,0,5.608c-0.499,0-0.941,0-1.416,0c-0.008-0.137-0.023-0.263-0.023-0.393c-0.002-1.944-0.005-3.89-0.001-5.836
		c0.004-1.205,0.718-1.911,1.933-1.911c8.761-0.004,17.521-0.004,26.285,0c1.193,0,1.93,0.729,1.932,1.927
		c0.004,5.703,0.004,11.409-0.002,17.112c0,1.192-0.746,1.917-1.943,1.917c-7.463,0.003-14.928,0.003-22.393,0.003
		c-0.132,0-0.262,0-0.428,0c0-0.466,0-0.907,0-1.392c7.559,0,15.121,0,22.684,0c0.023-0.035,0.045-0.069,0.066-0.105
		c-2.971-3.067-5.941-6.134-8.936-9.228c-0.494,0.365-0.972,0.717-1.447,1.068c-0.489,0.361-0.979,0.724-1.467,1.087
		c-0.881,0.651-1.578,0.637-2.445-0.047c-0.779-0.615-1.557-1.232-2.336-1.847C21.499,14.954,21.382,14.873,21.239,14.762z
		 M12.51,6.002c0.103,0.094,0.149,0.142,0.199,0.182c4.056,3.209,8.112,6.417,12.162,9.632c0.271,0.217,0.449,0.151,0.691-0.028
		c4.258-3.163,8.521-6.317,12.781-9.473c0.1-0.075,0.195-0.155,0.293-0.232c-0.01-0.027-0.023-0.054-0.033-0.08
		C29.93,6.002,21.253,6.002,12.51,6.002z M30.456,13.929c2.782,2.87,5.524,5.703,8.33,8.598c0-4.966,0-9.828,0-14.768
		C35.98,9.837,33.236,11.869,30.456,13.929z"/>
	<path fill="#999999" stroke="#999999" stroke-miterlimit="10" d="M24.189,37.652c-2.233-0.084-4.246-0.863-6.184-1.873
		c-3.059-1.6-5.831-3.62-8.297-6.016c-1.938-1.885-3.533-4.078-4.967-6.377c-1.146-1.835-2.139-3.739-2.676-5.854
		c-0.34-1.336-0.465-2.684-0.131-4.039c0.041-0.169,0.17-0.365,0.315-0.449c1.222-0.714,2.453-1.41,3.688-2.104
		c0.921-0.516,1.884-0.289,2.469,0.581c1.069,1.593,2.134,3.189,3.19,4.789c0.601,0.909,0.512,1.841-0.238,2.643
		c-0.434,0.464-0.867,0.929-1.317,1.379c-0.179,0.179-0.194,0.321-0.074,0.547c0.974,1.849,2.307,3.418,3.777,4.877
		c1.414,1.402,2.925,2.683,4.704,3.613c0.247,0.13,0.389,0.11,0.578-0.082c0.447-0.451,0.912-0.882,1.378-1.315
		c0.798-0.744,1.736-0.82,2.644-0.218c1.553,1.031,3.105,2.065,4.655,3.103c1.036,0.693,1.243,1.584,0.632,2.666
		c-0.664,1.177-1.322,2.354-2.006,3.517c-0.1,0.167-0.311,0.332-0.498,0.37C25.292,37.525,24.738,37.575,24.189,37.652z
		 M3.153,15.048c0.04,1.935,0.602,3.556,1.4,5.087c2.391,4.59,5.49,8.59,9.75,11.619c2.041,1.451,4.121,2.821,6.479,3.719
		c1.258,0.48,2.552,0.793,3.911,0.688c0.224-0.017,0.541-0.103,0.64-0.265c0.633-1.037,1.211-2.108,1.813-3.162
		c0.156-0.272,0.104-0.471-0.15-0.641c-1.585-1.052-3.17-2.109-4.753-3.169c-0.312-0.207-0.593-0.177-0.859,0.08
		c-0.391,0.373-0.779,0.753-1.18,1.119c-0.377,0.347-0.765,0.679-1.148,1.017c-0.531-0.229-1.09-0.41-1.589-0.695
		c-2.822-1.612-5.115-3.826-7.108-6.365c-0.818-1.043-1.537-2.148-2.041-3.386c-0.123-0.304-0.109-0.521,0.145-0.769
		c0.629-0.622,1.227-1.277,1.837-1.922c0.325-0.343,0.347-0.555,0.085-0.948c-1.023-1.542-2.051-3.082-3.08-4.619
		c-0.266-0.398-0.363-0.425-0.774-0.192C5.7,12.712,4.899,13.24,4.04,13.636C3.305,13.973,3.024,14.458,3.153,15.048z"/>
</g>
<rect x="-0.001" y="0.1" fill="none" width="42.002" height="42"/>
</svg>
