<svg enable-background="new 0 0 18 18" height="18" viewBox="0 0 18 18" width="18" xmlns="http://www.w3.org/2000/svg"><g fill="#fcfcfc"><path d="m7.6 15.5.1-.1 1.3-1.9c0-.1.1-.1.2-.1h2.6c.1 0 .2 0 .2.1.4.6.9 1.3 1.3 1.9 0 0 0 .1.1.1z"/><path d="m6.1 9.7-.1-4.8c0-.5-.3-.9-.8-1h-.1-3.9c-.1.1-.2.1-.3.1-.4.1-.7.5-.7.9v7.1.2 2.4c0 .5.3.8.8.9h.9 3.1c.6 0 1-.4 1-1zm-4.8 3.7c-.2 0-.4-.2-.4-.4s.2-.4.4-.4.4.1.4.3-.1.4-.3.4c0 .1-.1.1-.1.1zm3.9-5.8h-4.1c-.2 0-.2 0-.2-.3v-.3c0-.2 0-.2.2-.2h4.1c.2 0 .2 0 .2.2v.4c-.1.1-.1.2-.2.2zm0-1.5h-4.1c-.1 0-.2 0-.2-.1v-1.2c0-.1.1-.2.2-.2h4.1c.2 0 .2 0 .2.2v1.1c-.1.2-.1.2-.2.2z"/><path d="m16.8 2.5h-12.6c-.1 0-.2 0-.3 0-.4 0-.6.3-.7.7h13.7c.2 0 .2 0 .2.2v6.6c0 .3 0 .3-.3.3h-9.8c-.2 0-.2 0-.2.2v1.9c0 .1 0 .2.2.2h9.9.2c.4-.1.8-.5.7-.9v-8.2c0-.6-.5-1-1-1zm-6.3 9.4c-.2 0-.4-.2-.4-.4 0-.2.2-.4.4-.4s.4.2.4.4c-.1.2-.2.4-.4.4z"/></g><path d="m0 0h18v18h-18z" fill="none"/></svg>