<svg enable-background="new 0 0 18 18" height="18" viewBox="0 0 18 18" width="18" xmlns="http://www.w3.org/2000/svg"><g fill="#fcfcfc"><path d="m15.4 13.4v3.6c0 .2 0 .2-.2.2h-4.6c-.2 0-.2 0-.2-.2v-4.2c0-.2 0-.3-.2-.3h-2.4c-.2 0-.2 0-.2.3v4.2c0 .2 0 .2-.2.2h-4.6c-.2 0-.2 0-.2-.2v-7.2c0-.1 0-.1 0-.2 0-.2.2-.4.4-.3.2 0 .3.2.3.4v.3 6.1c0 .3 0 .3.3.3h2.9c.2 0 .3 0 .3-.3v-4.1c0-.2 0-.2.2-.2h4c.2 0 .3 0 .3.3v4c0 .4 0 .4.4.4h2.8c.2 0 .2 0 .2-.3v-6.4c0-.3.1-.4.3-.5s.4 0 .5.2v.2.6c-.1 1-.1 2.1-.1 3.1z"/><path d="m9 .7 1 1c2.4 2.3 4.8 4.6 7.1 6.9.2.2.4.4.6.6v.2c-.2.3-.4.4-.7.1l-2.1-2.1-5.3-5-.5-.4c-.1-.1-.1-.1-.3 0l-3.8 3.8-3.4 3.2c-.2.2-.4.4-.7.6 0 .1-.1.2-.2.2-.2 0-.4-.1-.5-.4 0-.1 0-.1 0-.2s0-.1.1-.1c.5-.5 1-1 1.5-1.4l6.6-6.4z"/><path d="m13.7 2.2h1.5c.2 0 .2 0 .2.2v2.9c0 .2-.1.4-.3.4-.2.1-.3 0-.4-.1s-.1-.2-.1-.3c0-.7 0-1.3 0-2 0-.2 0-.2-.2-.2h-2.1c-.1 0-.3 0-.4-.1-.1 0-.2-.2-.2-.3 0-.2.1-.3.2-.4.1 0 .2-.1.3-.1z"/></g><path d="m0 0h18v18h-18z" fill="none"/></svg>