<?xml version="1.0" encoding="utf-8"?>
<!-- Generator: Adobe Illustrator 21.0.0, SVG Export Plug-In . SVG Version: 6.00 Build 0)  -->
<svg version="1.1" id="Layer_1" xmlns="http://www.w3.org/2000/svg" xmlns:xlink="http://www.w3.org/1999/xlink" x="0px" y="0px"
	 viewBox="0 0 42 42" style="enable-background:new 0 0 42 42;" xml:space="preserve">
<style type="text/css">
	.st0{fill:#FD0808;}
	.st1{fill:none;}
</style>
<path class="st0" d="M23.5,36.9c0-4.2,0-8.3,0-12.4c-1.7,0-3.3,0-5,0c0,4.1,0,8.3,0,12.4c-3.8,0-7.5,0-11.2,0c0-4.8,0-9.5,0-14.4
	c-0.5,0.6-1,1.1-1.5,1.5c-0.7-0.7-1.2-1.2-1.8-1.8C9.7,16.7,15.3,11,21,5.3c5.7,5.7,11.3,11.4,17,17c-0.5,0.5-1.1,1.1-1.7,1.6
	c-0.4-0.5-0.9-1-1.4-1.5c0,0-0.1,0-0.1,0.1c0,4.8,0,9.5,0,14.3C31,36.9,27.3,36.9,23.5,36.9z M32.2,34.4c0-0.2,0-0.3,0-0.4
	c0-4.5,0-9,0-13.5c0-0.3-0.1-0.5-0.3-0.7c-3.6-3.5-7.1-7.1-10.6-10.6C21.2,9,21.1,8.9,21,8.8c-0.1,0.1-0.2,0.1-0.2,0.2
	c-3.6,3.6-7.2,7.2-10.8,10.8c-0.1,0.1-0.2,0.4-0.2,0.5c0,4.6,0,9.1,0,13.6c0,0.1,0,0.3,0,0.4c2.1,0,4.2,0,6.3,0c0-4.2,0-8.3,0-12.4
	c3.3,0,6.6,0,10,0c0,4.2,0,8.3,0,12.4C28.1,34.4,30.1,34.4,32.2,34.4z"/>
<rect x="0" y="0.1" class="st1" width="42" height="42"/>
</svg>
