<svg height="30" viewBox="0 0 30 30" width="30" xmlns="http://www.w3.org/2000/svg"><g fill="#e0c55e"><path d="m16.67 17.46a.4.4 0 0 0 -.17.17 1.79 1.79 0 0 0 -.13.39c-.26 1.14-.51 2.29-.77 3.43a5.62 5.62 0 0 0 -.09.57c0 .13.06.2.21.2a.3.3 0 0 0 .33-.22 4.42 4.42 0 0 0 .15-.48c.22-.95.42-1.91.64-2.86.07-.32.13-.64.2-1s-.14-.3-.37-.2z"/><path d="m26.48 14c-.47.42-.39.37-.73.53a2.78 2.78 0 0 1 -1.55.11 2.36 2.36 0 0 1 -1.81-1 3.38 3.38 0 0 1 -.31-1 1.58 1.58 0 0 1 .54-1.39 6.66 6.66 0 0 1 1-.95 4.69 4.69 0 0 0 1.27-1.5 3.63 3.63 0 0 0 -.06-2.41 3.57 3.57 0 0 0 -2.11-2.26s1.43 1.75 1.28 2.87a2.41 2.41 0 0 1 -2.29 2.11 4.39 4.39 0 0 1 -2.59-1 4.42 4.42 0 0 1 -1.12-2.56 3.89 3.89 0 0 1 .37-2.21 4.2 4.2 0 0 1 2.57-1.44 5.18 5.18 0 0 0 -3.42.46 3.34 3.34 0 0 0 -1.51 4c.16.8 1.32 3 1.31 4 0 .81-.4 3.31-2.09 3.62a2.26 2.26 0 0 1 -1.6-.12c-1.63-.86-1.49-3.46-1.28-4.41a7 7 0 0 0 -.06-4.53 4.89 4.89 0 0 0 -1.45-2 24.78 24.78 0 0 0 -2.69-1.92 12.57 12.57 0 0 1 2.29 3.56 4.4 4.4 0 0 1 -1.3 4.19c-.84.83-1.28 1.12-1.82 1.77a14.77 14.77 0 0 0 -1.91 2.64.28.28 0 0 0 0-.11c-.12-.16-.34-.55-.42-.63-1.15-1.28-3.23-.64-3.51-.59.25 0 2.06.23 2.49 1.53a10.85 10.85 0 0 1 .49 3.1 12.3 12.3 0 0 0 -.08 1.37 11.16 11.16 0 0 0 21.55 4.1 14.06 14.06 0 0 0 1-4.41 8.07 8.07 0 0 1 .34-2.47 2.47 2.47 0 0 1 1.33-1.44 1.86 1.86 0 0 0 -2.12.39zm-13.73 9.18s0 .06-.07.06h-1.93c.21-.95.43-1.89.64-2.85h-.59c-.06.28-.12.56-.19.83l-.43 2a.07.07 0 0 1 -.08.06h-1.91c.05-.25.11-.49.16-.73q.56-2.47 1.1-4.95l.24-1.06s0-.07.07-.07h1.92c-.18.81-.36 1.61-.53 2.42h.58l.54-2.42h2c0 .22-.09.43-.14.63l-1.17 5.3c-.09.24-.16.51-.21.78zm6.25-5.27c-.16.86-.34 1.71-.53 2.55-.09.41-.19.81-.31 1.21a2.18 2.18 0 0 1 -1.57 1.55 3.71 3.71 0 0 1 -1 .16 2.75 2.75 0 0 1 -1.1-.2 1.24 1.24 0 0 1 -.8-1.36c.14-.76.29-1.51.46-2.27.11-.53.24-1.05.38-1.58a2.17 2.17 0 0 1 1.47-1.53 3.3 3.3 0 0 1 2-.05 1.28 1.28 0 0 1 1 1.52zm4.73-.12h-1.23c-.4 1.82-.81 3.63-1.21 5.45h-2c.4-1.81.8-3.62 1.21-5.45h-1.15l.3-1.36h4.35z"/><path d="m6.2 9.43a3.82 3.82 0 0 1 -.78-1 1.45 1.45 0 0 1 .18-1.31c.56-.88 1.15-1.3 1.29-1.75a2.94 2.94 0 0 0 -.48-2 13.16 13.16 0 0 1 1.59 2.08 1.82 1.82 0 0 1 -.2 2.09c-.34.3-1.23.54-1.44 1a2.28 2.28 0 0 0 -.16.89z"/></g><path d="m0 0h30v30h-30z" fill="none"/></svg>