<?xml version="1.0" encoding="utf-8"?>
<!-- Generator: Adobe Illustrator 21.0.0, SVG Export Plug-In . SVG Version: 6.00 Build 0)  -->
<svg version="1.1" id="Layer_1" xmlns="http://www.w3.org/2000/svg" xmlns:xlink="http://www.w3.org/1999/xlink" x="0px" y="0px"
	 viewBox="0 0 30 30" style="enable-background:new 0 0 30 30;" xml:space="preserve">
<style type="text/css">
	.st0{fill:none;}
	.st1{fill:#E0C55E;}
</style>
<path class="st0" d="M0,0h30v30H0V0z"/>
<g>
	<path class="st1" d="M6.8,27C6.8,27,6.8,27,6.8,27c0.2-0.3,0.4-0.2,0.6-0.2c5.1,0,10.2,0,15.3,0c0.2,0,0.5,0,0.6,0.2
		c0,0,0,0.1,0,0.1C17.8,27,12.3,27,6.8,27z"/>
	<g>
		<g>
			<g>
				<path class="st1" d="M29,5.1c-0.7-0.9-1.5-1.6-2.7-1.7c-0.1,0-0.1,0-0.2,0c-0.1,0.2-0.3,0.1-0.4,0.1c-7.1,0-14.2,0-21.3,0
					C4.2,3.5,4.1,3.5,4,3.4c-0.1,0-0.1,0-0.2,0C1.9,3.7,0.9,4.7,0.6,6.5c0,4.6,0,9.1,0,13.7c0.1,0.6,0.2,1.2,0.6,1.7
					c0.8,1,1.9,1.5,3.2,1.5c7,0,14,0,21,0c2.2,0,3.6-1.1,4-3.3c0-4.6,0-9.1,0-13.7C29.4,6,29.3,5.5,29,5.1z M27.2,19.5
					c0,1.1-0.4,1.6-1.6,1.6c-3.5,0-7,0-10.5,0c-3.5,0-7.1,0-10.6,0c-1.1,0-1.5-0.4-1.5-1.6c0-4.1,0-8.1,0-12.2
					c0-1.1,0.5-1.6,1.6-1.6c7,0,14.1,0,21.1,0c1.2,0,1.6,0.5,1.6,1.6C27.2,11.4,27.2,15.4,27.2,19.5z"/>
				<path class="st1" d="M4.4,3.4c7.1,0,14.2,0,21.3,0c0.2,0,0.3,0,0.5,0c-7.4,0-14.8,0-22.2,0C4.1,3.5,4.3,3.4,4.4,3.4z"/>
			</g>
		</g>
	</g>
	<path class="st1" d="M23.3,27c-5.5,0-11,0-16.6,0C6.2,26.7,6,26.4,6,25.8c0-0.5,0.3-0.9,0.8-1c0.2,0,0.3-0.1,0.5-0.1
		c5.1,0,10.2,0,15.4,0c0.9,0,1.4,0.4,1.4,1.1C24.1,26.4,23.9,26.7,23.3,27z"/>
	<path class="st1" d="M18.9,13.7c0.6-1.1,1.1-2.1,1.6-3.1c0.2-0.3,0.4-0.6,0.7-0.7c0.4-0.1,0.8,0,1,0.3c0.3,0.4,0.3,0.8,0.1,1.2
		c-0.6,1.1-1.2,2.3-1.8,3.4c-0.3,0.5-0.5,1-0.8,1.5c-0.2,0.4-0.5,0.6-0.9,0.6s-0.7-0.2-0.9-0.6c-0.9-1.7-1.7-3.3-2.6-5
		c-0.3-0.5-0.1-1.1,0.4-1.4s1.1-0.1,1.4,0.5c0.5,0.9,1,1.9,1.4,2.8C18.7,13.4,18.8,13.5,18.9,13.7z"/>
	<path class="st1" d="M11.2,9.7c0.8,0,1.6,0,2.4,0c0.7,0,1.1,0.4,1.1,1c0,0.6-0.5,1-1.1,1c-0.3,0-0.7,0-1,0c-0.3,0-0.4,0.1-0.4,0.4
		c0,1.3,0,2.5,0,3.8c0,0.7-0.4,1.2-1,1.2c-0.6,0-1-0.4-1-1.2c0-1.3,0-2.5,0-3.8c0-0.3-0.1-0.4-0.4-0.4c-0.3,0-0.7,0-1,0
		c-0.7,0-1.1-0.4-1.1-1c0-0.6,0.4-1,1.1-1C9.5,9.7,10.3,9.7,11.2,9.7L11.2,9.7z"/>
</g>
</svg>
