<?xml version="1.0" encoding="utf-8"?>
<!-- Generator: Adobe Illustrator 16.0.0, SVG Export Plug-In . SVG Version: 6.00 Build 0)  -->
<!DOCTYPE svg PUBLIC "-//W3C//DTD SVG 1.1//EN" "http://www.w3.org/Graphics/SVG/1.1/DTD/svg11.dtd">
<svg version="1.1" id="Layer_1" xmlns="http://www.w3.org/2000/svg" xmlns:xlink="http://www.w3.org/1999/xlink" x="0px" y="0px"
	 width="42px" height="42px" viewBox="0 0 42 42" enable-background="new 0 0 42 42" xml:space="preserve">
<g>
	<g>
		<path fill="#FFFFFF" d="M16.537,13.345c-1.072,0.008-1.912,0.858-1.894,1.913c0.015,0.975,0.947,1.927,1.854,1.899
			c1.145-0.039,1.974-0.865,1.971-1.966C18.469,14.095,17.675,13.334,16.537,13.345z"/>
		<path fill="#FFFFFF" d="M22.809,13.347c-0.912-0.016-1.96,0.853-1.997,1.648c-0.053,1.101,0.856,2.111,1.926,2.139
			c1.046,0.026,1.941-0.828,1.965-1.868C24.727,14.217,23.879,13.36,22.809,13.347z"/>
		<path fill="#FFFFFF" d="M10.31,13.347c-1.058,0.004-1.961,0.927-1.968,2.015c-0.006,0.921,1.025,1.827,2.062,1.813
			c0.952-0.013,1.814-0.939,1.814-1.95C12.218,14.143,11.408,13.343,10.31,13.347z"/>
	</g>
	<path fill="#FFFFFF" d="M11.095,31.676c0-1.775,0-3.507,0-5.264c-0.477,0-0.92,0-1.369,0c-0.848,0-1.695,0.002-2.543,0
		c-2.223-0.008-3.992-1.749-4.004-3.977c-0.012-2.63-0.002-5.26-0.002-7.893c0-1.751-0.006-3.501,0.002-5.252
		c0.01-1.917,1.254-3.479,3.119-3.908C6.603,5.313,6.925,5.29,7.239,5.29c4.527-0.007,9.057-0.004,13.584-0.002
		c1.573,0,3.147-0.012,4.723,0.002c1.744,0.013,2.992,0.828,3.74,2.398c0.258,0.538,0.334,1.12,0.334,1.713
		c-0.004,4.05,0,8.101-0.011,12.151c0,0.531,0.013,1.07-0.071,1.591c-0.313,1.875-1.972,3.262-3.881,3.27
		c-2.416,0.006-4.83,0.002-7.242-0.003c-0.189,0-0.338,0.046-0.488,0.159c-2.201,1.654-4.404,3.303-6.607,4.953
		C11.257,31.566,11.194,31.605,11.095,31.676z M13.741,26.395c0.107-0.08,0.17-0.121,0.232-0.166
		c1.037-0.775,2.07-1.558,3.115-2.324c0.107-0.079,0.266-0.131,0.398-0.131c2.666-0.006,5.338-0.006,8.006-0.002
		c0.934,0,1.475-0.525,1.475-1.453c0-4.311,0-8.625,0-12.935c0-0.933-0.516-1.45-1.445-1.45C22.313,7.93,19.106,7.93,15.897,7.93
		c-2.869,0-5.738,0-8.609,0.006c-0.197,0-0.408,0.012-0.59,0.072C6.14,8.189,5.829,8.672,5.829,9.313
		c-0.002,4.351-0.002,8.699,0,13.051c0,0.87,0.541,1.405,1.422,1.405c2.066,0,4.135-0.002,6.201-0.002c0.088,0,0.176,0,0.289,0
		C13.741,24.648,13.741,25.496,13.741,26.395z"/>
	<path fill="#FFFFFF" d="M38.032,14.149c-0.005-2.141-1.765-4.015-3.903-4.036C32.947,10.104,31.738,10,30.561,10
		C30.406,10,28,10,28,10c0,2,0,2,0,3c0,0,2.428,0,2.578,0c1.152,0,2.313-0.072,3.463-0.066c0.792,0.008,1.346,0.523,1.346,1.314
		c0.002,4.353,0.004,8.688,0.002,13.036c0,0.911-0.537,1.075-1.447,1.075c-2.068,0-4.135-0.359-6.201-0.359C27.66,28,27,28,27,28
		c0,2,0,2.434,0,3.313c0-0.054,0.1-0.082,0.05-0.117c-1.034-0.774-1.958-1.551-2.991-2.332c-0.151-0.114-0.234-0.168-0.422-0.168
		c-2.517,0.007-5.003,0.004-7.516,0.008l-2.763,1.979c0.627,0.428,1.363,0.652,2.195,0.658c2.389,0.016,4.786,0.006,7.175,0
		c0.236-0.002,0.429,0.063,0.617,0.204c2.168,1.632,3.286,3.259,5.459,4.886c0.07,0.051-0.805,0.1-0.805,0.184
		C28,34.827,28,33,28,31c0,0,2.314,0,2.4,0c1.203,0,2.408,0.172,3.609,0.172c2.243-0.004,4.016-1.658,4.021-3.893
		C38.04,22.873,38.04,18.555,38.032,14.149z"/>
</g>
<rect y="0.1" fill="none" width="42.001" height="42"/>
</svg>
