<svg enable-background="new 0 0 18 18" height="18" viewBox="0 0 18 18" width="18" xmlns="http://www.w3.org/2000/svg"><path d="m17.2 17.1c0-.5-.1-.9-.2-1.3-.3-1.6-1.2-3.1-2.4-4.1-.7-.7-1.6-1.2-2.6-1.5l-.2-.1.2-.1.4-.3c1.4-.9 2.2-2.4 2.3-4.1 0-.9-.2-1.8-.7-2.6-.5-1-1.4-1.8-2.4-2.3-.6-.3-1.3-.5-2-.5-.6-.1-1.1-.1-1.7 0-.9.2-1.7.5-2.4 1-1.3.9-2.1 2.4-2.2 4 0 .9.2 1.8.6 2.6.5.9 1.2 1.6 2 2.1l.2.1v.1l-.2.1c-1.5.6-2.9 1.6-3.8 3-.8 1.2-1.3 2.6-1.3 4 0 .3.3.6.6.6h.2c.3 0 .6-.3.5-.7 0-1 .3-2 .8-2.8 1.1-2 3.2-3.3 5.5-3.5.7-.1 1.4 0 2.1.1 1.6.3 3.1 1.2 4.1 2.5.7.8 1.1 1.8 1.3 2.8.1.3.1.7.1 1s.3.6.6.5c.3 0 .6-.2.6-.6zm-7.9-7.5c-1.8.1-3.5-.9-4.3-2.5-.7-1.3-.5-2.9.5-4.1.7-.9 1.8-1.5 3-1.6h.5c1.4 0 2.7.6 3.6 1.6.5.6.8 1.4.9 2.2.1 1.3-.5 2.6-1.5 3.4-.9.6-1.8.9-2.7 1z" fill="#fcfcfc"/><path d="m0 0h18v18h-18z" fill="none"/></svg>