<svg height="30" viewBox="0 0 30 30" width="30" xmlns="http://www.w3.org/2000/svg"><path d="m29 13.84a12.08 12.08 0 0 0 -.38-2.32 14.58 14.58 0 0 0 -1.25-3.19 13.41 13.41 0 0 0 -2-2.79 14.14 14.14 0 0 0 -1.74-1.54 14 14 0 0 0 -5.12-2.53 12.29 12.29 0 0 0 -3-.42 15.52 15.52 0 0 0 -2.64.13 14.46 14.46 0 0 0 -4 1.22 14 14 0 0 0 -3.4 2.3 13.87 13.87 0 0 0 -2.12 2.49 14.22 14.22 0 0 0 -1.85 4 13.38 13.38 0 0 0 -.5 2.34v.63.17a.11.11 0 0 1 0 .11v.14a.37.37 0 0 1 0 .18v.17.2a.66.66 0 0 1 0 .28v.15s0 .06 0 .08 0 .08 0 .11v.12s0 0 0 .06a8.93 8.93 0 0 0 .1 1.16 14.16 14.16 0 0 0 1.63 4.76 14.52 14.52 0 0 0 2.94 3.64 13.51 13.51 0 0 0 3.06 2.07 13.21 13.21 0 0 0 3.27 1.14 11 11 0 0 0 1.52.25h.63.11a.25.25 0 0 1 .17 0h.17a.81.81 0 0 1 .31 0h.17a.71.71 0 0 1 .29 0h.17a.25.25 0 0 1 .17 0h.08s.08 0 .11 0c.32 0 .64 0 1-.07a14.16 14.16 0 0 0 4.77-1.56 14 14 0 0 0 5-4.53 13.65 13.65 0 0 0 1.52-3 13.29 13.29 0 0 0 .81-3.79 14.42 14.42 0 0 0 0-2.16zm-15.48 7.64h-4.25a.62.62 0 0 1 -.7-.69v-4.25a.61.61 0 0 1 .68-.68h4.28a.6.6 0 0 1 .68.67v4.27a.61.61 0 0 1 -.69.68zm.69-7.48a.61.61 0 0 1 -.69.68h-4.26a.62.62 0 0 1 -.69-.68v-4.3a.62.62 0 0 1 .69-.7h4.26a.62.62 0 0 1 .69.69zm6.89 6.8a.62.62 0 0 1 -.68.68h-4.28a.61.61 0 0 1 -.67-.67v-4.29a.61.61 0 0 1 .68-.67h4.28a.61.61 0 0 1 .67.68zm.07-8.31-2.55 2.51a.53.53 0 0 1 -.42.17.51.51 0 0 1 -.42-.17l-2.57-2.56a.57.57 0 0 1 0-.84l2.55-2.56a.6.6 0 0 1 .86 0c.85.84 1.69 1.69 2.54 2.54a.58.58 0 0 1 .01.91z" fill="#e0c55e"/><path d="m0 0h30v30h-30z" fill="none"/></svg>