<svg height="30" viewBox="0 0 30 30" width="30" xmlns="http://www.w3.org/2000/svg"><g fill="#e0c55e"><path d="m28 19.68c0-.15-.05-.24-.24-.2-.46.08-.93.13-1.39.2-.18 0-.22-.1-.25-.24-.1-.44-.19-.88-.32-1.31a6.39 6.39 0 0 0 -.35-.81c-.07-.16-.05-.27.11-.35l1.21-.71c.12-.07.15-.13.07-.27a8.34 8.34 0 0 0 -5.17-4c-.28-.08-.29-.07-.34.2-.09.44-.17.88-.25 1.32 0 .17-.11.24-.3.2a5.65 5.65 0 0 0 -2.13 0c-.23.05-.27 0-.32-.24l-.27-1.47a.4.4 0 0 1 0-.11l.51-.06c.49 0 1-.08 1.48-.1.19 0 .22-.08.22-.26v-8.84a2.52 2.52 0 0 0 0-.48 1.47 1.47 0 0 0 -1.27-1.1l-.18-.05h-12.63l-.28.05a1.51 1.51 0 0 0 -1.21 1.33v.53c0 .23-.06.26-.28.27-.41 0-.82 0-1.22.07a1.41 1.41 0 0 0 -1.2 1.31v.94 18.55a1.69 1.69 0 0 0 .4 1.22 1.44 1.44 0 0 0 1.13.49h4.11 5.1a.8.8 0 0 1 .76.36.32.32 0 0 0 .08.09l.12-.09 1.08-1c.18-.16.17-.16.33 0a6.53 6.53 0 0 0 1.49 1.17c.46.27.46.27.24.75s-.31.69-.48 1c-.07.14 0 .2.09.26a5.23 5.23 0 0 0 1.85.56c.34 0 .7.06 1.05.09a.65.65 0 0 1 .2 0h.45l.47-.05a6.61 6.61 0 0 0 2.24-.48c.47-.21.47-.21.26-.68s-.33-.75-.5-1.12c0-.1-.07-.17.06-.23a6.08 6.08 0 0 0 1.87-1.39l.12-.1.36.34.87.82c.09.09.15.09.23 0a8.78 8.78 0 0 0 1.95-4.33 9.62 9.62 0 0 0 .07-2.05zm-14-2.33a6.28 6.28 0 0 0 -.63 2c0 .31-.12.35-.44.3s-.81-.09-1.22-.14c-.14 0-.21 0-.22.18a8.64 8.64 0 0 0 .45 3.67c.1.28.21.56.33.88h-8.11a.59.59 0 0 1 -.67-.67v-18.16a.58.58 0 0 1 .59-.66h11.39a.61.61 0 0 1 .64.7v7a.42.42 0 0 1 -.24.41 8.27 8.27 0 0 0 -3.25 3.14c-.1.15-.09.23.08.33.39.22.77.46 1.15.69.2.07.21.1.15.33zm8.26 7.55a4.62 4.62 0 0 1 -2.23.68 5 5 0 0 1 -5.19-4.13 5.22 5.22 0 0 1 2.16-5.36 4.79 4.79 0 0 1 2.76-.81 5 5 0 0 1 4.8 3.85 9.41 9.41 0 0 1 .18 1 5.38 5.38 0 0 1 -2.53 4.77z"/><path d="m9.76 13.13c.2-.21.34-.37.49-.51a1.17 1.17 0 0 1 2 .58 1.1 1.1 0 0 1 -.25 1.09c-.73.78-1.47 1.55-2.21 2.32h-.05l-.07-.05c-.67-.73-1.44-1.46-2.14-2.22a1.24 1.24 0 0 1 .61-2.06 1.11 1.11 0 0 1 1.13.29c.16.17.31.35.49.56z"/><path d="m19.66 17.44.66.62c.54.54 1.1 1.06 1.63 1.6a1.22 1.22 0 0 1 -.54 2 1.11 1.11 0 0 1 -1.08-.29l-.33-.29h-.06a3 3 0 0 0 0 .52 1.49 1.49 0 0 0 .75.95 1 1 0 0 1 .16.13s0 .05 0 .07a2.48 2.48 0 0 1 -.27 0 3.5 3.5 0 0 0 -1.76 0 .67.67 0 0 1 -.2 0l.23-.17a1.46 1.46 0 0 0 .71-1.3s0-.08 0-.17a2.38 2.38 0 0 0 -.22.18 1.62 1.62 0 0 1 -.72.46 1.19 1.19 0 0 1 -1.15-2c.6-.61 1.22-1.2 1.83-1.81.09-.16.21-.32.36-.5z"/><path d="m7.28 9.34c-.31-1-.62-1.93-.92-2.89a.29.29 0 0 0 -.3-.24.32.32 0 0 0 -.35.26c-.17.55-.36 1.1-.54 1.65s-.31.94-.47 1.41c.23.13.33.1.41-.13s.15-.43.22-.65a.27.27 0 0 1 .3-.23h.79a.25.25 0 0 1 .29.21c.07.23.15.46.23.69s.14.22.29.16.07-.16.05-.24zm-1.78-1.14c.16-.54.32-1.07.47-1.59h.09c.16.52.33 1 .5 1.59z"/></g><path d="m0 0h30v30h-30z" fill="none"/></svg>