<?xml version="1.0" encoding="utf-8"?>
<!-- Generator: Adobe Illustrator 16.0.0, SVG Export Plug-In . SVG Version: 6.00 Build 0)  -->
<!DOCTYPE svg PUBLIC "-//W3C//DTD SVG 1.1//EN" "http://www.w3.org/Graphics/SVG/1.1/DTD/svg11.dtd">
<svg version="1.1" id="Layer_1" xmlns="http://www.w3.org/2000/svg" xmlns:xlink="http://www.w3.org/1999/xlink" x="0px" y="0px"
	 width="42px" height="42px" viewBox="0 0 42 42" enable-background="new 0 0 42 42" xml:space="preserve">
<g>
	<path fill="#FFFFFF" d="M41.262,9.197c0,7.936,0,15.872,0,23.805c-0.021,0.063-0.043,0.126-0.063,0.191
		c-0.221,0.74-0.672,1.291-1.375,1.621c-0.188,0.088-0.393,0.143-0.588,0.213c-12.139,0-24.277,0-36.417,0
		c-0.047-0.018-0.092-0.038-0.141-0.051c-1.141-0.303-1.926-1.281-1.934-2.463c-0.01-2.094-0.006-4.188,0-6.281
		c0.002-0.701,0.494-1.231,1.193-1.31c0.143-0.016,0.287-0.013,0.43-0.022c2.379-0.157,4.066-2.729,3.264-4.972
		c-0.551-1.543-1.832-2.53-3.465-2.587c-0.957-0.034-1.441-0.695-1.432-1.532c0.021-1.992,0.002-3.984,0.014-5.978
		c0.002-0.29,0.053-0.59,0.137-0.868C1.23,7.842,2.214,7.171,3.48,7.171c11.58,0,23.163,0,34.745,0c0.159,0,0.319-0.003,0.479,0.001
		c1.203,0.022,2.153,0.743,2.498,1.892C41.217,9.111,41.242,9.153,41.262,9.197z M38.738,32.501c0-7.603,0-15.172,0-22.757
		c-11.816,0-23.617,0-35.431,0c0,1.731,0,3.441,0,5.161c0.068,0.021,0.131,0.042,0.195,0.061c2.584,0.726,4.213,2.382,4.744,5.02
		c0.652,3.259-1.469,6.505-4.709,7.282c-0.203,0.049-0.248,0.129-0.246,0.318c0.006,1.545,0.004,3.089,0.004,4.633
		c0,0.092,0,0.182,0,0.282C15.127,32.501,26.922,32.501,38.738,32.501z"/>
	<path fill="#FFFFFF" d="M19.635,29.98c-0.387-0.013-0.783-0.24-1.01-0.707c-0.229-0.475-0.178-0.942,0.154-1.354
		c0.652-0.799,1.314-1.584,1.973-2.377c1.689-2.029,3.378-4.059,5.07-6.086c1.854-2.226,3.707-4.447,5.563-6.669
		c0.559-0.669,1.445-0.712,1.982-0.104c0.434,0.484,0.426,1.174-0.02,1.708c-1.054,1.267-2.105,2.529-3.16,3.794
		c-3.121,3.746-6.244,7.491-9.366,11.239C20.543,29.762,20.215,29.98,19.635,29.98z"/>
	<path fill="#FFFFFF" d="M26.09,16.081c-0.029,2.114-1.732,3.798-3.82,3.781c-2.097-0.02-3.802-1.748-3.778-3.827
		c0.025-2.106,1.758-3.817,3.823-3.779C24.438,12.296,26.117,13.998,26.09,16.081z M23.551,16.063
		c0.002-0.708-0.561-1.271-1.268-1.27c-0.689,0.001-1.253,0.569-1.253,1.26c0,0.709,0.563,1.267,1.269,1.265
		C22.998,17.314,23.549,16.761,23.551,16.063z"/>
	<path fill="#FFFFFF" d="M33.688,26.207c-0.024,2.124-1.737,3.809-3.844,3.775c-2.105-0.029-3.785-1.752-3.754-3.846
		c0.031-2.104,1.77-3.793,3.871-3.757C32.027,22.415,33.711,24.146,33.688,26.207z M29.879,27.445
		c0.699,0.005,1.26-0.538,1.271-1.235c0.014-0.707-0.539-1.274-1.25-1.287c-0.695-0.012-1.279,0.567-1.277,1.265
		C28.627,26.882,29.184,27.441,29.879,27.445z"/>
	<path fill="#FFFFFF" d="M10.909,17.337c0.848,0,1.67,0,2.51,0c0,0.838,0,1.661,0,2.506c-0.834,0-1.664,0-2.51,0
		C10.909,19.016,10.909,18.188,10.909,17.337z"/>
	<path fill="#FFFFFF" d="M10.903,22.389c0.848,0,1.668,0,2.512,0c0,0.84,0,1.668,0,2.514c-0.838,0-1.666,0-2.512,0
		C10.903,24.063,10.903,23.241,10.903,22.389z"/>
	<path fill="#FFFFFF" d="M10.907,14.771c0-0.832,0-1.654,0-2.496c0.834,0,1.664,0,2.506,0c0,0.83,0,1.653,0,2.496
		C12.579,14.771,11.75,14.771,10.907,14.771z"/>
	<path fill="#FFFFFF" d="M10.907,27.463c0.848,0,1.67,0,2.506,0c0,0.837,0,1.659,0,2.502c-0.836,0-1.662,0-2.506,0
		C10.907,29.133,10.907,28.309,10.907,27.463z"/>
</g>
<rect y="0.1" fill="none" width="42" height="42"/>
</svg>
