<svg height="30" viewBox="0 0 30 30" width="30" xmlns="http://www.w3.org/2000/svg"><g fill="#e0c55e"><path d="m29 6a6.45 6.45 0 0 1 -.35.86 2.32 2.32 0 0 1 -.54.63.58.58 0 0 0 -.22.46v10.77a2.13 2.13 0 0 1 -1.89 2.18c-.14 0-.15-.06-.15-.17v-12.73a.51.51 0 0 0 -.21-.44 2 2 0 0 1 -.77-2.29 2.11 2.11 0 0 1 1.9-1.47 2 2 0 0 1 1.95 1.2c.1.21.18.43.28.64s0 .25 0 .36z"/><path d="m23.65 16.6c-.47 0-.47 0-.47-.47v-6.23a.75.75 0 0 0 -.5-.68 2.58 2.58 0 0 0 -.68-.15c-.76 0-1.52 0-2.27 0-.12 0-.34-.05-.35-.1a.74.74 0 0 1 .07-.46 2.06 2.06 0 0 1 .36-.43l.62-.69a.41.41 0 0 0 -.2-.72c-.46-.11-.92-.23-1.37-.32a.7.7 0 0 1 -.54-.35c-.19-.35-.38-.71-.59-1.06s-.68-.43-.93 0l-.35.61a.26.26 0 0 1 -.3.15l-2.15-.46a.62.62 0 0 1 -.39-.34c-.35-.62-.69-1.24-1.07-1.85-.25-.4-.58-.39-.83 0s-.62 1.09-.93 1.62a1.51 1.51 0 0 1 -.24.36 1 1 0 0 1 -.37.22c-.69.15-1.39.27-2.07.42a.31.31 0 0 1 -.39-.18c-.12-.22-.24-.44-.38-.65a.47.47 0 0 0 -.88 0c-.22.4-.45.78-.62 1.16a.58.58 0 0 1 -.49.33 10.21 10.21 0 0 0 -1.34.27.46.46 0 0 0 -.23.81c.31.36.63.7 1 1.05a.33.33 0 0 1 .12.39c-.09.15-.23.15-.39.15-.68 0-1.36 0-2 0-.93 0-1.15.18-1.5 1v16.4l.17.33a1 1 0 0 0 .91.54h.24 19.73a1.11 1.11 0 0 0 1.17-1.19c0-.95 0-1.9 0-2.85 0-.27 0-.3.29-.3h.49a.26.26 0 0 0 .29-.28c0-.15 0-.3 0-.46v-4.98c-.01-.56-.07-.61-.64-.61zm-7.94-9.19a1.2 1.2 0 0 1 .45-.23.79.79 0 0 0 .7-.5 4.25 4.25 0 0 1 .27-.46c.1-.15.18-.15.27 0a1.3 1.3 0 0 1 .16.31 1.09 1.09 0 0 0 .9.67l.3.06c.29.06.32.14.13.36s-.17.21-.26.3a1 1 0 0 0 -.28 1 1.45 1.45 0 0 1 0 .3c0 .17-.06.22-.22.17l-.51-.22a.72.72 0 0 0 -.76 0 5.2 5.2 0 0 1 -.53.26h-.11c-.08 0-.13-.06-.12-.19s0-.29.05-.44v-.14a.73.73 0 0 0 -.15-.66 1.31 1.31 0 0 1 -.27-.34c-.08-.08-.07-.22-.02-.25zm-6.42-1c.45-.1.89-.2 1.35-.27a.8.8 0 0 0 .6-.43c.2-.36.39-.72.6-1.08.07-.11.11-.29.27-.25s.19.15.24.24c.22.38.45.76.66 1.14a.65.65 0 0 0 .5.34l1.43.31c.21 0 .24.15.1.31-.29.32-.58.63-.88.93a1.1 1.1 0 0 0 -.3 1c.05.39.11.78.14 1.18s0 .3-.26.19-.69-.3-1-.47a1.26 1.26 0 0 0 -1.22 0c-.32.17-.66.31-1 .46s-.37.08-.33-.13c.07-.5.12-.91.17-1.32a1 1 0 0 0 -.28-.89c-.3-.3-.59-.61-.89-.93s-.14-.31.1-.36zm-4 .9c.22-.06.46-.12.69-.16a.51.51 0 0 0 .37-.27c.1-.18.21-.36.32-.54s.25-.23.4 0l.3.51a.61.61 0 0 0 .45.33 4.21 4.21 0 0 1 .51.12c.27.08.31.2.13.41l-.33.39a.74.74 0 0 0 -.13.59c0 .19 0 .37.06.55s-.08.25-.25.19a5.11 5.11 0 0 1 -.48-.22.8.8 0 0 0 -.75 0 5 5 0 0 1 -.58.24c-.18.07-.26 0-.26-.21s0-.26 0-.39a1 1 0 0 0 -.3-.94 4.11 4.11 0 0 1 -.29-.31c-.08-.16-.05-.26.15-.32zm11.43 16.82h-9.12c-.43 0-.43 0-.43-.41v-.48c0-.25.06-.3.31-.3h9.18c.34 0 .35 0 .35.35v.53c-.01.26-.01.31-.29.31zm4.39-4.81c0 .36-.15.49-.51.49h-17c-.4 0-.54-.14-.54-.57 0-1.86 0-3.74 0-5.6v-1.9c0-.54.11-.66.66-.66h16.8c.45 0 .55.11.56.55v2.53 5a.62.62 0 0 0 .03.16z"/><path d="m14.38 15.46v-2.94c0-.23 0-.26-.24-.26h-4.08c-.23 0-.26 0-.26.27v5.84c0 .24 0 .28.28.28h4c.28 0 .31 0 .31-.3zm-.73 0-1.38 1.2a.23.23 0 0 1 -.34 0l-1.36-1.2a.23.23 0 0 1 -.05-.34 0 0 0 0 0 0 0 .86.86 0 0 1 1-.59 4.26 4.26 0 0 0 .62 0h.95a.38.38 0 0 1 .37.22c.08.15.16.29.25.43a.23.23 0 0 1 -.06.25z"/><path d="m8.73 15.45v-3c0-.16 0-.24-.21-.24h-4.11c-.17 0-.24.07-.24.24v6c0 .16.06.21.22.21h4.11c.16 0 .23-.06.23-.24zm-.78 0-1.37 1.18a.23.23 0 0 1 -.34 0l-1.37-1.17a.26.26 0 0 1 0-.39 4.27 4.27 0 0 1 .3-.44.48.48 0 0 1 .29-.15h1 1a.43.43 0 0 1 .39.22l.15.4a.25.25 0 0 1 0 .36z"/><path d="m20 12.57c0-.28 0-.32-.32-.32h-4c-.29 0-.3 0-.3.31v5.79c0 .28 0 .3.31.3h4c.27 0 .31 0 .31-.31 0-.57 0-1.15 0-1.72 0-1.35 0-2.7 0-4.05zm-.68 2.88-1.32 1.15a.29.29 0 0 1 -.43 0c-.43-.39-.88-.77-1.33-1.15a.25.25 0 0 1 0-.38 2 2 0 0 0 .12-.19.66.66 0 0 1 .78-.43h.08.63 1a.35.35 0 0 1 .34.2 4 4 0 0 0 .28.43.26.26 0 0 1 -.12.37z"/></g><path d="m0 0h30v30h-30z" fill="none"/></svg>