<svg height="30" viewBox="0 0 30 30" width="30" xmlns="http://www.w3.org/2000/svg"><g fill="#e0c55e"><path d="m15.9 10.67a1.13 1.13 0 0 1 -.1.13l-4 3.25a.36.36 0 0 1 -.25.06l-4.92-1.11c-.12 0-.15-.08-.17-.18-.23-1.31-.46-2.62-.7-3.92a.34.34 0 0 1 .1-.35l1.56-1.66a23.51 23.51 0 0 1 2.8-2.29.58.58 0 0 1 .64-.11l3.93 1.18a.26.26 0 0 1 .21.23c.21.87.46 1.73.63 2.6.15.7.19 1.43.27 2.17z"/><path d="m6.36 13.56c.58.13 1.11.24 1.64.37l3.26.73a.27.27 0 0 1 .22.21l1.91 5.37a.24.24 0 0 1 -.05.28c-.9 1.09-1.79 2.19-2.68 3.3a.22.22 0 0 1 -.27.08l-4.22-1.24a.35.35 0 0 1 -.2-.14 14 14 0 0 1 -2.11-5.52.36.36 0 0 1 .06-.27l2.31-3a.68.68 0 0 1 .13-.17z"/><path d="m15.6 5.67q.63-.36 1.26-.69c.65-.36 1.29-.72 1.95-1.07a.48.48 0 0 1 .29 0 15.69 15.69 0 0 1 5 2.93.44.44 0 0 1 .18.31c.09 1.46.19 2.91.29 4.36a.26.26 0 0 1 -.16.28l-3.25 2a.27.27 0 0 1 -.34 0l-4.14-2.79a.38.38 0 0 1 -.16-.25 22.88 22.88 0 0 0 -.89-4.93.53.53 0 0 1 -.03-.15z"/><path d="m11.05 24.21 2.62-3.21.05-.06c.41-.5.41-.49 1-.54 1.46-.11 2.92-.22 4.38-.35a.51.51 0 0 1 .51.21c.73.92 1.48 1.82 2.22 2.71a.2.2 0 0 1 0 .29c-.74 1-1.47 2-2.21 3a.41.41 0 0 1 -.24.17c-.92.17-1.83.36-2.75.48a13.89 13.89 0 0 1 -1.63.09c-.6 0-1.2 0-1.81 0a.28.28 0 0 1 -.2-.08z"/><path d="m27.23 15.06a13.11 13.11 0 0 1 -.42 2.94 10.88 10.88 0 0 1 -1.44 3.09 1 1 0 0 1 -.45.38l-2.29 1.15c-.13.07-.2.05-.29-.07-.79-1-1.59-1.94-2.37-2.91a.35.35 0 0 1 -.06-.28c.4-1.59.82-3.2 1.24-4.79a.37.37 0 0 1 .17-.22l3.58-2.13a.17.17 0 0 1 .26 0c.66.76 1.32 1.53 2 2.28.15.21.04.39.07.56z"/><path d="m10.82 1.41c-.22.8-.44 1.6-.67 2.4a.38.38 0 0 1 -.15.19c-.36.28-.72.57-1.1.83a15.86 15.86 0 0 0 -3.19 3 2 2 0 0 1 -1.15.73c-.73.17-1.45.4-2.18.6l-.25.06a14.44 14.44 0 0 1 8.63-7.88z"/><path d="m5.2 25a13.23 13.23 0 0 1 -4.2-10.19l.13.11 1.87 1.89a.45.45 0 0 1 .13.23 14.39 14.39 0 0 0 2 5.34 1.6 1.6 0 0 1 .25 1.15 14 14 0 0 0 -.11 1.47z"/><path d="m26.47 6.84c-.49-.08-.92-.17-1.36-.23a1.14 1.14 0 0 1 -.55-.24c-.6-.46-1.21-.9-1.81-1.35a13.09 13.09 0 0 0 -2.75-1.46 3.76 3.76 0 0 1 -1-.42 3.55 3.55 0 0 1 -.57-.84c-.27-.42-.54-.85-.8-1.3a16.12 16.12 0 0 1 5 2.05 15.1 15.1 0 0 1 3.84 3.79z"/><path d="m22.06 27-.53.35a11.45 11.45 0 0 1 -4.4 1.5 16 16 0 0 1 -6.23-.52l-.13-.05.11-.07 1.57-.73a.66.66 0 0 1 .25 0c1.22 0 2.44.13 3.66.08a14 14 0 0 0 2.47-.43 5.39 5.39 0 0 1 1.44-.13h1.59.19s.01 0 .01 0z"/><path d="m26.17 23.41-.25-1.86a.65.65 0 0 1 .08-.22c.4-.8.84-1.59 1.21-2.41a9.37 9.37 0 0 0 .63-3.44 3.09 3.09 0 0 0 0-.43 2.54 2.54 0 0 1 .44-1.79 7.94 7.94 0 0 0 .46-.86 14.66 14.66 0 0 1 -2.57 11.01z"/></g><path d="m0 0h30v30h-30z" fill="none"/></svg>